<?xml version="1.0" encoding="utf-8"?>
<!DOCTYPE svg PUBLIC "-//W3C//DTD SVG 1.0//EN" "http://www.w3.org/TR/2001/REC-SVG-20010904/DTD/svg10.dtd">
<svg version="1.0" xmlns="http://www.w3.org/2000/svg" width="512px" height="512px" viewBox="0 0 512 512" preserveAspectRatio="xMidYMid meet">
 <g fill="#000000">
  <path d="M460.5 510.8 c-7.1 -0.9 -18.6 -6.3 -23.5 -11 -1.9 -1.8 -41.3 -45.5 -87.4 -97.1 l-83.9 -93.9 -12.1 12.1 -12.1 12.1 -95.1 -95.2 c-61.4 -61.6 -96.4 -97.4 -98.8 -101.1 -22.3 -34.5 -24.3 -76.9 -5.9 -126.7 l3.7 -10 8.6 0 8.5 0 220.1 220.3 c141.2 141.3 221 221.8 222.6 224.7 3.8 6.7 5.8 14.5 5.8 22.4 0 12.4 -4 21.8 -13.1 30.8 -9.9 10 -23.1 14.4 -37.4 12.6z"/>
  <path d="M34.3 509.5 c-13.3 -3.6 -23.2 -11.9 -29.1 -24.3 -3 -6.3 -3.6 -8.9 -4 -15.9 -0.5 -9.5 0.7 -15 5.1 -23.8 2.6 -5.1 13.9 -16.9 76.6 -79.8 l73.6 -73.7 31.5 31.5 31.5 31.5 -74 73.9 c-52.1 52 -75.4 74.6 -78.9 76.5 -9.9 5.4 -21.9 6.9 -32.3 4.1z"/>
  <path d="M309.3 202.8 l-34.1 -34.3 1.3 -7 c0.8 -3.8 2.1 -11 3 -15.9 1.7 -9.4 6 -20.1 11.5 -28.3 1.8 -2.6 28.3 -29.9 58.9 -60.5 l55.6 -55.8 10.2 10.2 10.3 10.3 -40.7 40.7 -40.8 40.8 11 11 11 11 40.7 -40.7 40.8 -40.8 10.2 10.3 10.3 10.2 -40.8 40.8 -40.7 40.7 11 11 11 11 40.8 -40.8 40.7 -40.7 10.3 10.3 10.2 10.3 -55.7 55.5 c-35 34.8 -58 57 -61.7 59.4 -11.2 7.2 -17.2 9.2 -42.1 13.5 -2.7 0.5 -5.7 1.1 -6.5 1.4 -1 0.4 -12.3 -10.2 -35.7 -33.6z"/>
 </g>
<g opacity="0.5" transform="rotate(-45, 256.0, 256.0)">
  <text x="50%" y="50%" font-size="20" text-anchor="middle" fill="lightgray" dominant-baseline="middle">
    generated by vectorizer.io
  </text>
</g>
</svg>